<svg xmlns="http://www.w3.org/2000/svg" viewBox="0 0 512 512">
  <path fill="currentColor" d="M256 416c-114.9 0-208-78.8-208-176 0-9.6 0.9-18.9 2.7-28l94.7 53.4c-6.8 13.9-10.7 29.3-10.7 45.4 0 53 49.3 96 110 96s110-43 110-96c0-16.1-3.8-31.5-10.7-45.4l94.7-53.4c1.8 9.1 2.7 18.4 2.7 28 0 97.2-93.1 176-208 176zM256 0c144.9 0 256 61.8 256 144 0 56.7-53.3 103.9-132.8 128.8l-123.2-69.5 123.2-69.5v-37.4l-123.2 69.5-123.2-69.5-123.2 69.5c-79.5-24.9-132.8-72.1-132.8-128.8 0-82.2 111.1-144 256-144z"/>
</svg>
